<svg width="23" height="17" viewBox="0 0 23 17" fill="none" xmlns="http://www.w3.org/2000/svg">
<path d="M2.23775 0.500183C1.00777 0.500183 1.52588e-05 1.50794 1.52588e-05 2.73792V13.9264C1.52588e-05 15.1563 1.00777 16.1641 2.23775 16.1641H20.6987C21.9286 16.1641 22.9364 15.1563 22.9364 13.9264V2.73792C22.9364 1.50794 21.9286 0.500183 20.6987 0.500183H2.23775ZM2.23775 1.61893H20.6987C20.8602 1.61893 21.0071 1.65639 21.1445 1.71512L12.1673 9.73033C11.7433 10.109 11.211 10.109 10.7863 9.73033L1.7916 1.71512C1.92877 1.65658 2.07568 1.61893 2.23743 1.61893H2.23775ZM1.12755 2.62414L7.5609 8.35821L1.24143 14.4329C1.16748 14.2823 1.1191 14.1085 1.1191 13.9259V2.73742C1.1191 2.6982 1.12417 2.66172 1.12768 2.62387L1.12755 2.62414ZM21.8087 2.62414C21.8124 2.66218 21.8173 2.69867 21.8173 2.73769V13.9261C21.8173 14.1087 21.7689 14.2826 21.6949 14.433L15.3924 8.34929L21.8083 2.62421L21.8087 2.62414ZM14.5537 9.10144L20.7248 15.0453C20.7158 15.0455 20.7074 15.0453 20.6985 15.0453H2.23754C2.22856 15.0453 2.22017 15.0455 2.2112 15.0453L8.3998 9.11043L10.043 10.5703C10.8615 11.3 12.0919 11.301 12.9099 10.5703L14.5531 9.10189L14.5537 9.10144Z" fill="#21242B"/>
</svg>
