<svg width="20" height="20" fill="none" xmlns="http://www.w3.org/2000/svg"><path d="M10 1.667c2.264 0 2.547.008 3.435.05.888.041 1.492.18 2.023.387.55.212 1.014.499 1.477.961.424.417.752.92.96 1.477.207.53.347 1.136.388 2.023.04.888.05 1.17.05 3.435 0 2.264-.008 2.547-.05 3.435-.041.888-.181 1.492-.387 2.023a4.07 4.07 0 01-.96 1.477 4.079 4.079 0 01-1.478.96c-.53.207-1.135.347-2.023.388-.888.04-1.17.05-3.435.05-2.264 0-2.547-.008-3.435-.05-.887-.041-1.492-.181-2.023-.387a4.075 4.075 0 01-1.477-.96 4.087 4.087 0 01-.96-1.478c-.207-.53-.347-1.135-.388-2.023-.04-.888-.05-1.17-.05-3.435 0-2.264.008-2.547.05-3.435.041-.888.18-1.492.387-2.023.209-.557.537-1.06.961-1.477a4.08 4.08 0 011.477-.96c.531-.207 1.135-.347 2.023-.388.888-.04 1.17-.05 3.435-.05zm0 4.166a4.167 4.167 0 100 8.334 4.167 4.167 0 000-8.334zm5.417-.208a1.042 1.042 0 10-2.084 0 1.042 1.042 0 002.084 0zM10 7.5a2.5 2.5 0 110 5 2.5 2.5 0 010-5z" fill="#fff"/></svg>