<svg width="24" height="24" viewBox="0 0 24 24" fill="none" xmlns="http://www.w3.org/2000/svg">
<path d="M9 7C9 7.5848 9.12281 8.10526 9.36842 8.5614C9.62573 9.01754 9.98246 9.37427 10.4386 9.63158C10.8947 9.87719 11.4152 10 12 10C12.5965 10 13.117 9.87719 13.5614 9.63158C14.0175 9.37427 14.3684 9.01754 14.614 8.5614C14.8713 8.10526 15 7.5848 15 7C15 6.40351 14.8713 5.88304 14.614 5.4386C14.3684 4.98246 14.0175 4.63158 13.5614 4.38597C13.117 4.12866 12.5965 4 12 4C11.4152 4 10.8947 4.12866 10.4386 4.38597C9.98246 4.63158 9.62573 4.98246 9.36842 5.4386C9.12281 5.88304 9 6.40351 9 7ZM7 7C7 6.08772 7.22222 5.25146 7.66667 4.49123C8.12281 3.7193 8.73099 3.11111 9.49123 2.66667C10.2632 2.22222 11.0994 2 12 2C12.9123 2 13.7485 2.22222 14.5088 2.66667C15.2807 3.11111 15.8889 3.7193 16.3333 4.49123C16.7778 5.25146 17 6.08772 17 7C17 7.90058 16.7778 8.73684 16.3333 9.50877C15.8889 10.269 15.2807 10.8772 14.5088 11.3333C13.7485 11.7778 12.9123 12 12 12C11.0994 12 10.2632 11.7778 9.49123 11.3333C8.73099 10.8772 8.12281 10.269 7.66667 9.50877C7.22222 8.73684 7 7.90058 7 7ZM4 20C4 20.0585 3.9883 20.0877 3.96491 20.0877C3.94152 20.076 3.92398 20.0585 3.91228 20.0351C3.91228 20.0117 3.94152 20 4 20H20C20.0702 20 20.0994 20.0175 20.0877 20.0526C20.0877 20.076 20.0702 20.0936 20.0351 20.1053C20.0117 20.1053 20 20.0702 20 20V18C20 17.4737 19.6608 16.9825 18.9825 16.5263C18.3041 16.0585 17.3509 15.6901 16.1228 15.4211C14.9064 15.1404 13.5322 15 12 15C10.4678 15 9.08772 15.1404 7.85965 15.4211C6.64327 15.6901 5.69591 16.0585 5.01754 16.5263C4.33918 16.9825 4 17.4737 4 18V20ZM2 18C2 17.0175 2.45614 16.1462 3.36842 15.386C4.2807 14.6257 5.50292 14.0409 7.03509 13.6316C8.56725 13.2105 10.2222 13 12 13C13.7778 13 15.4327 13.2105 16.9649 13.6316C18.4971 14.0409 19.7193 14.6257 20.6316 15.386C21.5439 16.1462 22 17.0175 22 18V20C22 20.3626 21.9123 20.7018 21.7368 21.0175C21.5614 21.3216 21.3158 21.5614 21 21.7368C20.6959 21.9123 20.3626 22 20 22H4C3.64912 22 3.31579 21.9123 3 21.7368C2.69591 21.5497 2.45029 21.3041 2.26316 21C2.08772 20.6842 2 20.3509 2 20V18Z" fill="black"/>
</svg>
