<svg width="72" height="64" viewBox="0 0 72 64" fill="none" xmlns="http://www.w3.org/2000/svg">
<circle cx="25.5" cy="38.5" r="25.5" fill="#F07810"/>
<g filter="url(#filter0_d_27_489)">
<path d="M10.3865 50.8255C9.70467 50.8255 9.18016 50.642 8.813 50.2748C8.46332 49.9076 8.28848 49.3831 8.28848 48.7012V44.4002C8.28848 42.984 9.00532 42.2759 10.439 42.2759H11.9863L9.46864 42.9578C10.4477 42.1361 11.1733 40.851 11.6454 39.1026C12.1174 37.3368 12.3535 35.1076 12.3535 32.4151V30.0023C12.3535 29.1981 12.5633 28.5861 12.9829 28.1665C13.42 27.7294 14.0407 27.5109 14.8449 27.5109H23.8928C24.7145 27.5109 25.3352 27.7294 25.7548 28.1665C26.1919 28.5861 26.4104 29.1981 26.4104 30.0023V44.0068L24.6533 42.2759H26.8825C27.5819 42.2759 28.1151 42.4595 28.4823 42.8267C28.8494 43.1764 29.033 43.7009 29.033 44.4002V48.7012C29.033 50.1174 28.3424 50.8255 26.9612 50.8255C26.2793 50.8255 25.7548 50.642 25.3876 50.2748C25.038 49.9076 24.8631 49.3831 24.8631 48.7012V46H12.4584V48.7012C12.4584 50.1174 11.7678 50.8255 10.3865 50.8255ZM14.9236 42.2759H21.5849V31.2349H16.7856V32.9396C16.7856 35.0901 16.6283 36.9346 16.3136 38.4732C15.9988 39.9943 15.5355 41.2619 14.9236 42.2759ZM35.7001 46.2885C34.7035 46.2885 33.8206 46.1049 33.0513 45.7377C32.2995 45.3706 31.705 44.8723 31.2679 44.2429C30.8483 43.596 30.6385 42.8617 30.6385 42.0399C30.6385 41.0958 30.8833 40.3527 31.3728 39.8107C31.8624 39.2687 32.6492 38.8841 33.7332 38.6568C34.8172 38.412 36.2596 38.2896 38.0604 38.2896H39.5028V40.4926H38.0604C37.3785 40.4926 36.8103 40.5451 36.3557 40.65C35.9186 40.7374 35.5952 40.886 35.3854 41.0958C35.1756 41.2881 35.0707 41.5416 35.0707 41.8563C35.0707 42.2585 35.2105 42.5907 35.4903 42.8529C35.7875 43.1152 36.2071 43.2463 36.7491 43.2463C37.1862 43.2463 37.5709 43.1501 37.903 42.9578C38.2527 42.7655 38.5325 42.5032 38.7423 42.171C38.9521 41.8214 39.057 41.4192 39.057 40.9647V37.9225C39.057 37.2931 38.8909 36.8472 38.5587 36.585C38.244 36.3227 37.6932 36.1916 36.9065 36.1916C36.4869 36.1916 36.0148 36.244 35.4903 36.3489C34.9658 36.4364 34.3801 36.6025 33.7332 36.8472C33.2611 37.0221 32.859 37.0483 32.5268 36.9259C32.1946 36.8035 31.9323 36.5937 31.74 36.2965C31.5652 35.9993 31.4777 35.6758 31.4777 35.3261C31.4952 34.9765 31.6089 34.6443 31.8187 34.3296C32.046 34.0148 32.3869 33.7701 32.8415 33.5952C33.6807 33.2805 34.45 33.0707 35.1493 32.9658C35.8662 32.8609 36.5218 32.8085 37.1163 32.8085C38.5499 32.8085 39.7301 33.0183 40.6567 33.4379C41.6009 33.84 42.3002 34.4694 42.7548 35.3261C43.2269 36.1654 43.4629 37.2494 43.4629 38.5781V43.8757C43.4629 44.645 43.2793 45.2307 42.9122 45.6328C42.545 46.035 42.0117 46.236 41.3124 46.236C40.5956 46.236 40.0448 46.035 39.6602 45.6328C39.293 45.2307 39.1094 44.645 39.1094 43.8757V43.1938L39.2668 43.561C39.1794 44.1205 38.9783 44.6013 38.6636 45.0034C38.3489 45.4056 37.938 45.7203 37.431 45.9475C36.924 46.1748 36.347 46.2885 35.7001 46.2885Z" fill="white"/>
</g>
<g filter="url(#filter1_d_27_489)">
<path d="M58.0912 46.236C57.3219 46.236 56.7275 46.0262 56.3079 45.6066C55.8883 45.1695 55.6784 44.5663 55.6784 43.797V29.9499C55.6784 29.1631 55.8883 28.5599 56.3079 28.1403C56.745 27.7207 57.3481 27.5109 58.1174 27.5109H64.569C66.667 27.5109 68.2843 28.0529 69.4207 29.1369C70.5746 30.2034 71.1516 31.6808 71.1516 33.569C71.1516 35.4573 70.5746 36.9434 69.4207 38.0274C68.2843 39.0939 66.667 39.6272 64.569 39.6272H60.504V43.797C60.504 44.5663 60.3029 45.1695 59.9008 45.6066C59.4987 46.0262 58.8955 46.236 58.0912 46.236ZM60.504 35.9293H63.7297C64.6389 35.9293 65.3382 35.737 65.8278 35.3524C66.3173 34.9502 66.5621 34.3558 66.5621 33.569C66.5621 32.7648 66.3173 32.1703 65.8278 31.7857C65.3382 31.401 64.6389 31.2087 63.7297 31.2087H60.504V35.9293Z" fill="#F07810"/>
</g>
<path d="M47.3064 16C46.9719 16 46.6377 15.8725 46.3826 15.6173C45.8724 15.1072 45.8724 14.28 46.3827 13.77L50.7701 9.38262C51.2802 8.87246 52.1074 8.87246 52.6174 9.38262C53.1276 9.89278 53.1276 10.72 52.6173 11.23L48.2299 15.6175C47.9751 15.8725 47.6406 16 47.3064 16Z" fill="#F07810"/>
<path d="M32.6371 9.40696C32.3473 9.57396 31.9939 9.63043 31.645 9.53695C30.9476 9.35005 30.5334 8.63402 30.7201 7.93779L32.3247 1.94966C32.5112 1.25337 33.2279 0.840389 33.9253 1.02737C34.6227 1.21427 35.0369 1.9303 34.8502 2.62653L33.2457 8.6148C33.1526 8.96275 32.9266 9.24012 32.6371 9.40696Z" fill="#F07810"/>
<path d="M16.5509 8.79745C16.3648 9.07542 16.0729 9.28239 15.7187 9.35289C15.0104 9.49383 14.3222 9.03495 14.1817 8.32796L12.9717 2.24818C12.831 1.54124 13.2911 0.853835 13.9992 0.71303C14.7074 0.57209 15.3957 1.03097 15.5362 1.73795L16.7463 7.81782C16.8167 8.17104 16.7368 8.51974 16.5509 8.79745Z" fill="#F07810"/>
<defs>
<filter id="filter0_d_27_489" x="8.25198" y="27.5107" width="35.25" height="23.5786" filterUnits="userSpaceOnUse" color-interpolation-filters="sRGB">
<feFlood flood-opacity="0" result="BackgroundImageFix"/>
<feColorMatrix in="SourceAlpha" type="matrix" values="0 0 0 0 0 0 0 0 0 0 0 0 0 0 0 0 0 0 127 0" result="hardAlpha"/>
<feOffset dy="0.226528"/>
<feGaussianBlur stdDeviation="0.0185433"/>
<feComposite in2="hardAlpha" operator="out"/>
<feColorMatrix type="matrix" values="0 0 0 0 0 0 0 0 0 0 0 0 0 0 0 0 0 0 0.25 0"/>
<feBlend mode="normal" in2="BackgroundImageFix" result="effect1_dropShadow_27_489"/>
<feBlend mode="normal" in="SourceGraphic" in2="effect1_dropShadow_27_489" result="shape"/>
</filter>
<filter id="filter1_d_27_489" x="55.6426" y="27.5107" width="15.5468" height="18.9887" filterUnits="userSpaceOnUse" color-interpolation-filters="sRGB">
<feFlood flood-opacity="0" result="BackgroundImageFix"/>
<feColorMatrix in="SourceAlpha" type="matrix" values="0 0 0 0 0 0 0 0 0 0 0 0 0 0 0 0 0 0 127 0" result="hardAlpha"/>
<feOffset dy="0.226528"/>
<feGaussianBlur stdDeviation="0.0185433"/>
<feComposite in2="hardAlpha" operator="out"/>
<feColorMatrix type="matrix" values="0 0 0 0 0 0 0 0 0 0 0 0 0 0 0 0 0 0 0.25 0"/>
<feBlend mode="normal" in2="BackgroundImageFix" result="effect1_dropShadow_27_489"/>
<feBlend mode="normal" in="SourceGraphic" in2="effect1_dropShadow_27_489" result="shape"/>
</filter>
</defs>
</svg>
